<svg width="169" height="45" viewBox="0 0 169 45" fill="none" xmlns="http://www.w3.org/2000/svg">
<path d="M16.7164 6.87394C15.8962 5.97562 15.076 5.38977 14.2949 5.07731C13.5138 4.76486 12.7326 4.64769 11.9515 4.64769C10.7798 4.64769 9.72521 4.84297 8.78784 5.2726C7.85047 5.70223 7.03027 6.24903 6.3663 6.99111C5.70233 7.73319 5.15553 8.59245 4.80402 9.56888C4.41345 10.5453 4.25722 11.5998 4.25722 12.7325C4.25722 13.9433 4.45251 15.0369 4.80402 16.0914C5.19459 17.1069 5.70233 18.0052 6.3663 18.7473C7.03027 19.4894 7.85047 20.0752 8.78784 20.5049C9.72521 20.9345 10.7798 21.1298 11.9515 21.1298C12.8498 21.1298 13.7481 20.8954 14.6073 20.4658C15.4666 20.0362 16.2477 19.3332 16.9898 18.3958L20.3097 20.7392C19.2942 22.1453 18.0444 23.1607 16.5993 23.7857C15.1541 24.4106 13.5919 24.723 11.9124 24.723C10.1548 24.723 8.59256 24.4496 7.10839 23.8638C5.62422 23.2779 4.41345 22.4968 3.35891 21.4813C2.30437 20.4658 1.48417 19.216 0.898311 17.7709C0.312455 16.3258 0 14.7244 0 12.9668C0 11.1702 0.312455 9.52982 0.898311 8.04565C1.48417 6.56148 2.30437 5.31166 3.35891 4.25711C4.41345 3.20257 5.66328 2.42143 7.10839 1.83557C8.5535 1.28877 10.1548 0.976318 11.9124 0.976318C13.4356 0.976318 14.8417 1.24972 16.1696 1.79652C17.4585 2.34332 18.6693 3.24163 19.8019 4.53051L16.7164 6.87394Z" fill="#619330"/>
<path d="M30.3473 1.56226H33.8234L43.5095 24.0982H38.9398L36.8307 18.9427H27.0665L25.0355 24.0982H20.5439L30.3473 1.56226ZM35.4247 15.5056L31.9486 6.32722L28.4335 15.5056H35.4247Z" fill="#619330"/>
<path d="M46.0088 1.56226H51.3206L62.2565 18.3177H62.3347V1.56226H66.3185V24.0982H61.2411L50.1098 6.83496H50.0317V24.0982H46.0088V1.56226Z" fill="#619330"/>
<path d="M91.5107 22.5358C90.0656 23.317 88.5423 23.8638 86.941 24.1762C85.3397 24.5277 83.7383 24.684 82.0979 24.684C80.3404 24.684 78.7 24.4106 77.2549 23.8638C75.7707 23.317 74.4818 22.5358 73.4273 21.4813C72.3337 20.4658 71.5135 19.216 70.8885 17.7318C70.3027 16.2867 69.9902 14.6463 69.9902 12.8497C69.9902 11.0531 70.3027 9.41265 70.8885 7.96754C71.4744 6.52243 72.3337 5.2726 73.4273 4.21806C74.5209 3.20258 75.7707 2.38238 77.2549 1.83558C78.739 1.28878 80.3794 1.01538 82.137 1.01538C83.9336 1.01538 85.6131 1.24973 87.0972 1.67935C88.6205 2.10898 89.9484 2.85106 91.0811 3.94466L87.5659 7.77226C86.902 7.06923 86.1208 6.56149 85.2616 6.17092C84.4023 5.8194 83.3478 5.62412 82.0979 5.62412C81.0434 5.62412 80.067 5.8194 79.2077 6.17092C78.3485 6.52243 77.6064 7.03017 76.9814 7.69414C76.3565 8.35811 75.8878 9.1002 75.5754 9.99851C75.2629 10.8968 75.0677 11.8342 75.0677 12.8887C75.0677 13.9433 75.2239 14.9197 75.5754 15.779C75.8878 16.6773 76.3565 17.4194 76.9814 18.0833C77.6064 18.7473 78.3485 19.216 79.2077 19.6066C80.067 19.9581 81.0043 20.1534 82.0979 20.1534C83.1915 20.1534 84.1289 20.0362 84.91 19.8018C85.6912 19.5675 86.3161 19.2941 86.7848 19.0598V15.3884H82.7619V10.8187H91.5497V22.5358H91.5107Z" fill="#619330"/>
<path d="M96.0801 1.56226H101.04V19.5285H110.219V24.0982H96.0801V1.56226Z" fill="#619330"/>
<path d="M137.052 1.56226H142.481L146.074 16.0134H146.152L150.839 1.56226H155.448L160.134 16.4039H160.213L164.001 1.56226H169L162.439 24.0982H157.986L153.026 8.51442H152.987L148.027 24.0982H143.77L137.052 1.56226Z" fill="#619330"/>
<path d="M124.553 26.8713C117.132 26.8713 111.117 20.8565 111.117 13.4356C111.117 6.01479 117.132 0 124.553 0C131.974 0 137.988 6.01479 137.988 13.4356C137.988 20.8565 131.974 26.8713 124.553 26.8713ZM124.553 1.87474C118.187 1.87474 112.992 7.06933 112.992 13.4356C112.992 19.8019 118.187 24.9965 124.553 24.9965C130.919 24.9965 136.114 19.8019 136.114 13.4356C136.114 7.06933 130.919 1.87474 124.553 1.87474Z" fill="#619330"/>
<path d="M130.607 2.85126C129.553 2.5388 128.42 2.38257 127.248 2.38257C125.217 2.38257 123.304 2.89031 121.624 3.74957V9.37379H116.742V8.28019C115.57 10.1549 114.906 12.3421 114.906 14.7246C114.906 16.2088 115.18 17.6148 115.648 18.9428H130.607V2.85126ZM121.585 15.1542H116.703V10.1159H121.585V15.1542ZM127.131 15.1542H122.249V10.1159H127.131V15.1542ZM127.131 9.37379H122.249V3.59334H127.131V9.37379Z" fill="#0E0E0E"/>
<path d="M133.38 4.06201V21.9111V22.2236H117.444C117.64 22.497 117.874 22.7704 118.108 23.0047H134.083V21.833V4.49164C133.887 4.33541 133.614 4.17918 133.38 4.06201Z" fill="#0E0E0E"/>
<path d="M132.872 3.74945C132.598 3.59322 132.286 3.47605 132.012 3.31982V20.6221H116.429C116.624 20.9736 116.819 21.2861 117.015 21.5985H132.872V3.74945Z" fill="#0E0E0E"/>
<path d="M31.0895 35.2297H31.7926V43.1582L32.105 43.4707L33.0815 43.5488V44.2128H28.9414V43.5488L29.9178 43.4707L30.2303 43.1582V36.4795H28.9414V35.8936L31.0895 35.2297ZM31.1677 31.1287C31.4801 31.1287 31.7145 31.2458 31.9488 31.4411C32.1441 31.6364 32.2613 31.9098 32.2613 32.1832C32.2613 32.4566 32.1441 32.73 31.9488 32.9253C31.7535 33.1206 31.4801 33.2377 31.1677 33.2377C30.8552 33.2377 30.6209 33.1206 30.4256 32.9253C30.2303 32.73 30.1131 32.4566 30.1131 32.1832C30.1131 31.8707 30.2303 31.6364 30.4256 31.4021C30.6209 31.2068 30.8552 31.1287 31.1677 31.1287Z" fill="#0E0E0E"/>
<path d="M34.0186 44.1736V43.5096L35.034 43.4315L35.3465 43.119V36.4402H34.0186V35.8544L36.1667 35.1904H36.8697V36.2059C37.6118 35.8153 38.1977 35.5029 38.6663 35.3466C39.135 35.1904 39.5256 35.1123 39.8381 35.1123C40.6583 35.1123 41.2441 35.3466 41.6737 35.8153C42.1034 36.284 42.2987 36.987 42.2987 37.9244V43.119L42.6111 43.4315L43.5875 43.5096V44.1736H39.5647V43.5096L40.463 43.4315L40.7754 43.119V38.2369C40.7754 37.5338 40.6192 37.0652 40.3458 36.7527C40.0724 36.4793 39.5647 36.3231 38.9007 36.3231C38.5882 36.3231 38.2758 36.3621 37.9633 36.4793C37.6118 36.5965 37.2603 36.7136 36.8697 36.948V43.119L37.1822 43.4315L38.0805 43.5096V44.1736H34.0186Z" fill="#0E0E0E"/>
<path d="M51.047 31.8316H49.6409V31.2458L51.9062 30.5818H52.6093V43.1191L52.9217 43.4316L53.82 43.5097V44.1737H51.086V43.2363C50.6173 43.6269 50.1487 43.9002 49.68 44.0955C49.2113 44.2908 48.7426 44.3689 48.2349 44.3689C47.2194 44.3689 46.3601 43.9784 45.6961 43.1582C45.0322 42.338 44.6807 41.3225 44.6807 40.0336C44.6807 38.5494 45.1103 37.3777 46.0086 36.4794C46.9069 35.5811 48.0396 35.1124 49.4456 35.1124C49.68 35.1124 49.9534 35.1124 50.2268 35.1515C50.5002 35.1905 50.7736 35.2296 51.086 35.3077V31.8316H51.047ZM51.047 42.5333V36.206C50.6955 36.1279 50.4221 36.0498 50.1487 35.9717C49.8753 35.9326 49.6409 35.8935 49.4456 35.8935C48.5083 35.8935 47.7271 36.2451 47.1413 36.9481C46.5554 37.6511 46.282 38.5494 46.282 39.7211C46.282 40.7757 46.5163 41.6349 47.0241 42.2599C47.5318 42.8848 48.1958 43.1972 49.0551 43.1972C49.3675 43.1972 49.719 43.1582 50.0315 43.041C50.3439 42.9238 50.6955 42.7676 51.047 42.5333Z" fill="#0E0E0E"/>
<path d="M59.3666 35.1123C60.6164 35.1123 61.671 35.5419 62.4521 36.4012C63.2723 37.2604 63.6629 38.354 63.6629 39.721C63.6629 41.088 63.2723 42.1816 62.4521 43.0409C61.6319 43.9001 60.6164 44.3298 59.3666 44.3298C58.1168 44.3298 57.1013 43.9001 56.2811 43.0409C55.4609 42.1816 55.0703 41.088 55.0703 39.721C55.0703 38.354 55.4609 37.2604 56.2811 36.4012C57.1013 35.5419 58.1168 35.1123 59.3666 35.1123ZM59.3666 35.8934C58.5854 35.8934 57.9605 36.245 57.5309 36.948C57.0622 37.651 56.8279 38.5884 56.8279 39.721C56.8279 40.8537 57.0622 41.7911 57.5309 42.4941C57.9996 43.1971 58.6245 43.5486 59.3666 43.5486C60.1477 43.5486 60.7726 43.1971 61.2413 42.4941C61.71 41.7911 61.9444 40.8928 61.9444 39.721C61.9444 38.5493 61.71 37.651 61.2413 36.948C60.7726 36.245 60.1477 35.8934 59.3666 35.8934Z" fill="#0E0E0E"/>
<path d="M64.3262 35.3076H68.349V36.0106L67.3726 36.0497L67.1383 36.3622L68.8177 42.377L71.2783 35.3076H72.411L74.5982 42.377L76.4729 36.3622L76.3167 36.0497L75.3403 36.0106V35.3076H78.6211V36.0106L77.5665 36.1278L74.9106 44.1736H73.778L71.5517 37.1824L69.0521 44.1736H67.9194L65.4588 36.0888L64.3262 36.0106V35.3076Z" fill="#0E0E0E"/>
<path d="M84.9484 35.5419V37.651H84.0501L83.8939 36.3621C83.6596 36.245 83.4252 36.1278 83.1909 36.0497C82.9565 35.9716 82.7612 35.9325 82.5269 35.9325C82.0582 35.9325 81.6676 36.0497 81.3942 36.284C81.1208 36.5184 81.0037 36.8308 81.0037 37.2604C81.0037 37.6119 81.1208 37.8854 81.3161 38.1197C81.5505 38.354 81.941 38.6274 82.566 38.9399C82.6441 38.9789 82.8003 39.0571 82.9956 39.1352C83.6986 39.4476 84.2064 39.7601 84.5188 39.9944C84.7532 40.1897 84.9094 40.385 85.0266 40.6584C85.1437 40.9318 85.2218 41.2443 85.2218 41.5567C85.2218 42.416 84.9094 43.119 84.3235 43.5877C83.6986 44.0954 82.8784 44.3298 81.7848 44.3298C81.3552 44.3298 80.9256 44.2907 80.4959 44.2517C80.1054 44.1735 79.7148 44.0954 79.3633 43.9392V41.5567H80.2616L80.4959 43.119C80.7693 43.2752 81.0037 43.3924 81.2771 43.4705C81.5505 43.5486 81.7848 43.5877 82.0582 43.5877C82.566 43.5877 82.9956 43.4705 83.308 43.1581C83.6205 42.8847 83.7767 42.5331 83.7767 42.0645C83.7767 41.6739 83.6596 41.4005 83.4643 41.1271C83.2299 40.8927 82.7222 40.5803 81.902 40.1897C80.9646 39.7601 80.3397 39.3695 80.0272 39.018C79.6757 38.6665 79.5195 38.1978 79.5195 37.651C79.5195 36.8308 79.7929 36.2059 80.3788 35.7372C80.9646 35.2685 81.7458 35.0732 82.8003 35.0732C83.2299 35.0732 83.6205 35.1123 83.972 35.1904C84.3235 35.3076 84.636 35.3857 84.9484 35.5419Z" fill="#0E0E0E"/>
<path d="M96.8616 37.612L100.025 41.049C100.338 40.6193 100.533 40.2288 100.728 39.8773C100.885 39.5258 101.002 39.1742 101.08 38.8618L100.728 38.5103L99.7128 38.354V37.612H103.462V38.354L102.134 38.5493C101.978 39.1352 101.744 39.721 101.509 40.2288C101.236 40.7365 100.963 41.2443 100.611 41.6739L102.056 43.3533L103.736 43.4315V44.1735H100.494V43.7439L99.6738 42.8065C99.0488 43.3533 98.463 43.7439 97.8381 44.0173C97.2522 44.2907 96.6273 44.4079 96.0414 44.4079C94.9088 44.4079 93.9714 44.0564 93.2293 43.3533C92.4872 42.6503 92.0967 41.7911 92.0967 40.7365C92.0967 39.9944 92.292 39.3695 92.6825 38.8227C93.0731 38.2759 93.698 37.8072 94.5182 37.4557C93.9714 36.9089 93.5808 36.4402 93.3465 36.0106C93.1122 35.581 92.995 35.1123 92.995 34.6436C92.995 33.7844 93.3074 33.0423 93.9714 32.4564C94.5963 31.8706 95.4165 31.5581 96.3539 31.5581C97.2913 31.5581 98.0334 31.8315 98.6583 32.3392C99.2441 32.847 99.5566 33.511 99.5566 34.3312C99.5566 35.0342 99.3613 35.6591 98.9317 36.1668C98.5411 36.6746 97.8381 37.1433 96.8616 37.612ZM95.2603 38.0025C94.7526 38.354 94.401 38.7056 94.1667 39.0961C93.9324 39.4867 93.8152 39.9163 93.8152 40.385C93.8152 41.2443 94.0886 41.9473 94.5963 42.4941C95.1041 43.0409 95.768 43.3143 96.5492 43.3143C97.0179 43.3143 97.4866 43.2362 97.8771 43.0409C98.3068 42.8456 98.6973 42.5722 99.0879 42.2207L95.2603 38.0025ZM96.2367 36.987C96.8616 36.7136 97.3303 36.3621 97.6037 35.9325C97.8771 35.5419 98.0333 35.0342 98.0333 34.4483C98.0333 33.8234 97.8771 33.3547 97.5256 32.9642C97.2132 32.6126 96.7445 32.4174 96.1977 32.4174C95.6899 32.4174 95.2994 32.5736 94.9869 32.9251C94.6744 33.2766 94.5182 33.7062 94.5182 34.214C94.5182 34.6436 94.6354 35.0732 94.9088 35.5029C95.1431 35.9325 95.6118 36.4402 96.2367 36.987Z" fill="#0E0E0E"/>
<path d="M114.437 31.7925C116.585 31.7925 118.264 32.3393 119.475 33.3938C120.647 34.4874 121.272 36.0106 121.272 37.9635C121.272 39.0571 121.077 40.0335 120.686 40.8928C120.295 41.752 119.71 42.4551 118.967 43.0409C118.421 43.4315 117.796 43.7439 117.132 43.9392C116.468 44.1345 115.57 44.2126 114.437 44.2126H109.867V43.4706L110.922 43.3924L111.234 43.119V32.9642L110.922 32.6908L109.867 32.5736V31.8315H114.437V31.7925ZM112.914 32.6517V43.3534H114.359C116.038 43.3534 117.288 42.9238 118.147 42.0254C118.967 41.1271 119.397 39.7992 119.397 38.0026C119.397 36.2059 118.967 34.878 118.147 33.9797C117.327 33.0814 116.077 32.6517 114.359 32.6517H112.914Z" fill="#0E0E0E"/>
<path d="M127.013 35.1123C128.263 35.1123 129.317 35.5419 130.099 36.4012C130.919 37.2604 131.309 38.354 131.309 39.721C131.309 41.088 130.919 42.1816 130.099 43.0409C129.278 43.9001 128.263 44.3298 127.013 44.3298C125.763 44.3298 124.748 43.9001 123.928 43.0409C123.107 42.1816 122.717 41.088 122.717 39.721C122.717 38.354 123.107 37.2604 123.928 36.4012C124.748 35.5419 125.763 35.1123 127.013 35.1123ZM127.013 35.8934C126.232 35.8934 125.607 36.245 125.177 36.948C124.709 37.651 124.474 38.5884 124.474 39.721C124.474 40.8537 124.709 41.7911 125.177 42.4941C125.646 43.1971 126.271 43.5486 127.013 43.5486C127.794 43.5486 128.419 43.1971 128.888 42.4941C129.356 41.7911 129.591 40.8928 129.591 39.721C129.591 38.5493 129.356 37.651 128.888 36.948C128.419 36.245 127.794 35.8934 127.013 35.8934Z" fill="#0E0E0E"/>
<path d="M136.973 35.1123C138.223 35.1123 139.277 35.5419 140.059 36.4012C140.879 37.2604 141.269 38.354 141.269 39.721C141.269 41.088 140.879 42.1816 140.059 43.0409C139.238 43.9001 138.223 44.3298 136.973 44.3298C135.723 44.3298 134.708 43.9001 133.888 43.0409C133.067 42.1816 132.677 41.088 132.677 39.721C132.677 38.354 133.067 37.2604 133.888 36.4012C134.708 35.5419 135.723 35.1123 136.973 35.1123ZM136.973 35.8934C136.192 35.8934 135.567 36.245 135.137 36.948C134.669 37.651 134.434 38.5884 134.434 39.721C134.434 40.8537 134.669 41.7911 135.137 42.4941C135.606 43.1971 136.231 43.5486 136.973 43.5486C137.754 43.5486 138.379 43.1971 138.848 42.4941C139.316 41.7911 139.551 40.8928 139.551 39.721C139.551 38.5493 139.316 37.651 138.848 36.948C138.379 36.245 137.754 35.8934 136.973 35.8934Z" fill="#0E0E0E"/>
<path d="M142.519 44.1735V43.5096L143.495 43.4315L143.807 43.119V36.4402H142.519V35.8544L144.667 35.1904H145.37V36.9089C145.682 36.5965 145.995 36.284 146.307 36.0106C146.62 35.6982 146.971 35.4248 147.323 35.1123C147.362 35.1123 147.44 35.0732 147.518 35.0732C147.596 35.0732 147.674 35.0732 147.791 35.0732C147.987 35.0732 148.143 35.0732 148.338 35.1514C148.533 35.1904 148.69 35.2685 148.885 35.3466V36.948H148.299C148.182 36.7918 148.026 36.6746 147.869 36.6355C147.713 36.5574 147.518 36.5184 147.323 36.5184C147.01 36.5184 146.737 36.6355 146.385 36.8308C146.073 37.0652 145.682 37.3776 145.292 37.8463V43.119L145.604 43.4315L146.893 43.5096V44.1735H142.519Z" fill="#0E0E0E"/>
<path d="M155.368 35.5419V37.651H154.47L154.314 36.3621C154.079 36.245 153.845 36.1278 153.611 36.0497C153.376 35.9716 153.181 35.9325 152.947 35.9325C152.478 35.9325 152.088 36.0497 151.814 36.284C151.541 36.5184 151.424 36.8308 151.424 37.2604C151.424 37.6119 151.541 37.8854 151.736 38.1197C151.97 38.354 152.361 38.6274 152.986 38.9399C153.064 38.9789 153.22 39.0571 153.416 39.1352C154.119 39.4476 154.626 39.7601 154.939 39.9944C155.173 40.1897 155.329 40.385 155.446 40.6584C155.564 40.9318 155.642 41.2443 155.642 41.5567C155.642 42.416 155.329 43.119 154.743 43.5877C154.119 44.0954 153.298 44.3298 152.205 44.3298C151.775 44.3298 151.345 44.2907 150.916 44.2517C150.525 44.1735 150.135 44.0954 149.783 43.9392V41.5567H150.682L150.916 43.119C151.189 43.2752 151.424 43.3924 151.697 43.4705C151.97 43.5486 152.205 43.5877 152.478 43.5877C152.986 43.5877 153.416 43.4705 153.728 43.1581C154.04 42.8847 154.197 42.5331 154.197 42.0645C154.197 41.6739 154.079 41.4005 153.884 41.1271C153.65 40.8927 153.142 40.5803 152.322 40.1897C151.385 39.7601 150.76 39.3695 150.447 39.018C150.096 38.6665 149.939 38.1978 149.939 37.651C149.939 36.8308 150.213 36.2059 150.799 35.7372C151.385 35.2685 152.166 35.0732 153.22 35.0732C153.65 35.0732 154.001 35.1123 154.392 35.1904C154.743 35.3076 155.056 35.3857 155.368 35.5419Z" fill="#0E0E0E"/>
<path d="M15.7787 44.1736L12.6541 32.808L11.4824 32.5346V31.7925H15.6225V32.5346L14.4898 32.6908L14.3336 32.9251L16.7161 41.4786L19.6844 31.7925H20.9733L23.9807 41.6739L26.246 33.0033L26.0507 32.7689L24.8009 32.5346V31.7925H28.6285V32.5346L27.3787 32.808L24.4494 44.1736H23.1995L20.075 34.0969L16.9895 44.1736H15.7787Z" fill="#0E0E0E"/>
</svg>
