<svg width="55" height="47" viewBox="0 0 55 47" fill="none" xmlns="http://www.w3.org/2000/svg">
<path d="M6.97409 32.5992C7.14624 32.5055 7.32647 32.4904 7.40851 32.4042C9.2916 33.04 10.8708 34.2566 11.8434 35.7618C11.0566 36.0656 10.1878 36.4556 9.40096 36.7594C8.26986 37.2506 7.05672 37.8281 6.3184 38.6038C5.73606 39.1285 5.53035 39.7804 5.57882 40.2523C5.73357 40.874 6.88766 41.4914 8.28786 41.8503C12.4723 42.7696 17.364 41.7258 21.3651 39.0906C24.6857 36.9089 27.3606 33.75 29.3979 29.6924C27.9964 30.2063 17.5529 30.4125 21.3651 30.4125L20 26C22.3685 25.1673 29.4134 24.5347 31.6837 23.6308C32.0293 22.5706 32.2766 21.4393 32.6222 20.3791C33.8161 16.0747 35.0839 11.6055 37.8421 7.48767C41.7326 2.0058 38.4171 4.53106 43.5009 0.932657L46.8786 4.61666C41.8769 8.12888 45.8729 5.15005 42.7207 9.85619C40.5045 13.0561 39.4181 16.6375 38.3479 20.3762C38.8644 20.095 39.2907 19.8214 39.709 19.4691C44.4726 16.2941 47.6074 12.3034 48.7354 8.2425L54.0255 9.30733C52.6501 14.4995 48.8013 19.5019 43.0127 23.3179C40.881 24.6862 38.7332 25.8971 36.3889 26.9658C35.9614 28.1122 35.5338 29.2586 35.0161 30.4125C32.5755 35.8524 29.0964 40.0306 24.759 42.9319C21.3564 45.1998 17.3161 46.569 13.3511 46.9006C11.1883 47.0815 9.08332 46.9402 7.03616 46.4768C3.49868 45.6621 1.04383 43.8841 0.342818 41.4835C-0.227693 39.4686 0.455327 37.2696 2.27628 35.5307C3.76909 34.1366 5.49869 33.2779 6.97409 32.5992Z" fill="#322016"/>
</svg>
