<svg width="55" height="53" viewBox="0 0 55 53" fill="none" xmlns="http://www.w3.org/2000/svg">
<path d="M54.8988 13.2608C54.7095 12.5956 54.2477 12.0285 53.6158 11.6846C52.9834 11.3391 52.2316 11.2457 51.5263 11.4245C50.8219 11.6039 50.2218 12.0399 49.858 12.637L49.3997 13.3906C48.9643 13.1542 48.408 13.2933 48.1534 13.7027L45.8254 17.4526L45.0279 17.0195C44.8167 16.9041 44.5652 16.8728 44.3298 16.9328C44.094 16.9933 43.8935 17.1396 43.7722 17.3401C43.5238 17.7541 43.6751 18.2802 44.1114 18.5178L44.9089 18.9509L37.1186 31.7085L35.1938 36.5676L34.2773 38.1869C33.7407 39.0691 33.798 40.1657 34.4241 40.9933L32.3619 43.3835L31.7846 42.0154C31.5242 41.4056 30.9213 40.9878 30.2281 40.9366C29.5345 40.885 28.8699 41.209 28.5124 41.7727L28.1825 42.3009L27.8711 38.8365C27.7995 38.0169 27.1278 37.358 26.264 37.2591C25.3999 37.1605 24.5818 37.6498 24.3057 38.4297L22.0511 44.8214C21.8936 45.2734 22.1514 45.7606 22.6284 45.9129C22.7179 45.9522 22.8141 45.9759 22.9126 45.9818C23.3064 45.9831 23.6573 45.7458 23.7835 45.3931L26.0287 39.0014L26.3495 42.5174C26.4158 43.2676 26.9863 43.8914 27.7623 44.0614C28.5383 44.2314 29.3412 43.9083 29.7498 43.2626L30.089 42.7339L30.6573 44.094C30.8985 44.667 31.444 45.076 32.0898 45.1669C32.7356 45.2578 33.3836 45.0172 33.7917 44.5355L35.9273 41.9807C36.1636 42.0391 36.407 42.0683 36.6513 42.0674C37.6336 42.0746 38.5457 41.5858 39.0433 40.7852L39.9598 39.3389L43.4518 35.329L51.3245 22.4153L52.122 22.8483C52.3345 22.9634 52.4894 23.1533 52.5525 23.377C52.616 23.599 52.5829 23.8358 52.4612 24.035L48.7951 30.0372C48.6569 30.2343 48.6099 30.4762 48.6654 30.7071C48.7209 30.9376 48.8735 31.1368 49.0883 31.2581C49.2995 31.374 49.551 31.4053 49.7864 31.3452C50.0222 31.2848 50.2227 31.1384 50.344 30.938L54.01 24.9358C54.3757 24.3382 54.4746 23.6277 54.2848 22.9613C54.0951 22.2956 53.6337 21.7285 53.0018 21.3847L52.2043 20.9516L54.4956 17.2014C54.7458 16.7899 54.5985 16.2646 54.1658 16.0236L54.624 15.27C54.9995 14.6631 55.0988 13.9383 54.8988 13.2608ZM51.4435 13.5031C51.5648 13.3026 51.7662 13.1559 52.0029 13.0963C52.2383 13.0413 52.4871 13.0722 52.6993 13.183C52.9118 13.2976 53.0667 13.4879 53.1302 13.7112C53.1884 13.9336 53.1557 14.1687 53.0385 14.3692L52.5802 15.1228L50.9853 14.2567L51.4435 13.5031ZM38.9516 37.6849L38.4933 37.4337L37.1369 36.6886L38.4383 33.3976L41.3252 34.9737L38.9516 37.6849ZM36.202 40.1877C35.8149 39.9326 35.6959 39.4421 35.9273 39.053L36.3855 38.2998L37.98 39.1659L37.5218 39.9107C37.3933 40.1213 37.1776 40.271 36.9266 40.3238C36.6755 40.3763 36.4128 40.3272 36.202 40.1877ZM42.3702 33.5536L39.1991 31.8214L46.5312 19.817L49.7023 21.5492L42.3702 33.5536ZM50.6188 20.0509L47.4477 18.3187L49.2807 15.322L52.4518 17.0542L50.6188 20.0509Z" fill="#000"/>
<path d="M14.4627 39.7546L11.2186 42.8122L9.27553 40.976C8.91797 40.6402 8.34067 40.6402 7.98311 40.976C7.80947 41.1388 7.71191 41.36 7.71191 41.5909C7.71191 41.8218 7.80947 42.0434 7.98311 42.2058L9.92622 44.0421C10.2699 44.3643 10.7344 44.5449 11.2186 44.5445C11.7055 44.547 12.1741 44.3664 12.52 44.0421L15.7551 40.976C16.0666 40.6322 16.0455 40.12 15.7072 39.8003C15.3685 39.4802 14.8265 39.4603 14.4627 39.7546Z" ffill="#000"/>
<path d="M3.66602 42.0843C3.66602 46.1505 7.15396 49.4462 11.4564 49.4462C15.7588 49.4462 19.2468 46.1505 19.2468 42.0843C19.2468 41.606 18.8364 41.2182 18.3303 41.2182C17.8241 41.2182 17.4137 41.606 17.4137 42.0843C17.4137 45.1935 14.7465 47.714 11.4564 47.714C8.16625 47.714 5.49905 45.1935 5.49905 42.0843C5.49905 38.9751 8.16625 36.4546 11.4564 36.4546C12.7461 36.4512 14.0014 36.8467 15.0307 37.5808C15.4357 37.868 16.0103 37.7901 16.3137 37.4074C16.6176 37.0247 16.5357 36.4821 16.1307 36.195C13.7701 34.522 10.6115 34.253 7.97247 35.4997C5.33302 36.7469 3.66602 39.2961 3.66602 42.0843Z" fill="#000"/>
<path d="M32.9949 7.87333C33.501 7.87333 33.9114 7.48595 33.9114 7.00722C33.9114 6.52892 33.501 6.14111 32.9949 6.14111H9.16554C8.6594 6.14111 8.24902 6.52892 8.24902 7.00722V10.4717C8.24902 10.9504 8.6594 11.3378 9.16554 11.3378H32.9949C33.501 11.3378 33.9114 10.9504 33.9114 10.4717C33.9114 9.99335 33.501 9.60555 32.9949 9.60555H10.082V7.87333H32.9949Z" fill="#000"/>
<path d="M11.9146 13.0701C11.4084 13.0701 10.998 13.4579 10.998 13.9362C10.998 14.4149 11.4084 14.8022 11.9146 14.8022H30.2448C30.7509 14.8022 31.1613 14.4149 31.1613 13.9362C31.1613 13.4579 30.7509 13.0701 30.2448 13.0701H11.9146Z" fill="#000"/>
<path d="M35.7438 19.1326H15.5806C15.0744 19.1326 14.6641 19.5204 14.6641 19.9987C14.6641 20.4774 15.0744 20.8647 15.5806 20.8647H35.7438C36.25 20.8647 36.6603 20.4774 36.6603 19.9987C36.6603 19.5204 36.25 19.1326 35.7438 19.1326Z" fill="#000"/>
<path d="M26.5783 25.1955C26.5783 24.7172 26.1679 24.3293 25.6618 24.3293H7.33155C6.82541 24.3293 6.41504 24.7172 6.41504 25.1955C6.41504 25.6742 6.82541 26.0616 7.33155 26.0616H25.6618C26.1679 26.0616 26.5783 25.6742 26.5783 25.1955Z" fill="#000"/>
<path d="M35.7442 24.3293H29.3286C28.8225 24.3293 28.4121 24.7172 28.4121 25.1955C28.4121 25.6742 28.8225 26.0616 29.3286 26.0616H35.7442C36.2503 26.0616 36.6607 25.6742 36.6607 25.1955C36.6607 24.7172 36.2503 24.3293 35.7442 24.3293Z" fill="#000"/>
<path d="M16.4967 30.3918C17.0028 30.3918 17.4132 30.0044 17.4132 29.5257C17.4132 29.0474 17.0028 28.6597 16.4967 28.6597H7.33155C6.82541 28.6597 6.41504 29.0474 6.41504 29.5257C6.41504 30.0044 6.82541 30.3918 7.33155 30.3918H16.4967Z" fill="#000"/>
<path d="M20.1626 30.3918H26.5782C27.0844 30.3918 27.4948 30.0044 27.4948 29.5257C27.4948 29.0474 27.0844 28.6597 26.5782 28.6597H20.1626C19.6565 28.6597 19.2461 29.0474 19.2461 29.5257C19.2461 30.0044 19.6565 30.3918 20.1626 30.3918Z" fill="#000"/>
<path d="M41.2431 40.7858C40.737 40.7858 40.3266 41.1736 40.3266 41.6519V50.3129C40.3266 50.7916 39.9162 51.179 39.4101 51.179H2.74954C2.2434 51.179 1.83303 50.7916 1.83303 50.3129V3.54361C1.83303 3.06531 2.2434 2.67751 2.74954 2.67751H39.4101C39.9162 2.67751 40.3266 3.06531 40.3266 3.54361V19.8092C40.3266 20.2875 40.737 20.6753 41.2431 20.6753C41.7492 20.6753 42.1596 20.2875 42.1596 19.8092V3.54361C42.1596 2.10871 40.9285 0.945312 39.4101 0.945312H2.74954C1.23112 0.945312 0 2.10871 0 3.54361V50.3129C0 51.7482 1.23112 52.9112 2.74954 52.9112H39.4101C40.9285 52.9112 42.1596 51.7482 42.1596 50.3129V41.6519C42.1596 41.1736 41.7492 40.7858 41.2431 40.7858Z" fill="#000"/>
</svg>
