<svg width="105" height="95" viewBox="0 0 105 95" fill="none" xmlns="http://www.w3.org/2000/svg">
<path d="M30.5067 54.9591C33.4574 54.9591 36.3096 54.7685 39.0086 54.4137V24.8304C36.3099 24.4759 33.4574 24.2853 30.5067 24.2853C13.6583 24.2853 0 30.4799 0 38.1217V41.1224C0 48.7639 13.6583 54.9591 30.5067 54.9591Z" fill="url(#paint0_linear)"/>
<path d="M30.5067 70.4063C33.4574 70.4063 36.3096 70.2157 39.0086 69.8614V61.1901C36.3091 61.5446 33.4582 61.7378 30.5067 61.7378C15.7999 61.7378 3.52492 57.0175 0.641607 50.7353C0.221713 51.6504 0 52.5979 0 53.5692V56.5699C0 64.2117 13.6583 70.4063 30.5067 70.4063Z" fill="url(#paint1_linear)"/>
<path d="M39.0086 77.3117V76.6377C36.3091 76.9922 33.4582 77.1854 30.5067 77.1854C15.7999 77.1854 3.52492 72.4651 0.641607 66.1829C0.221713 67.0978 0 68.0453 0 69.0166V72.0173C0 79.6593 13.6583 85.8539 30.5067 85.8539C33.876 85.8539 37.1167 85.6056 40.1472 85.148C39.3961 83.6115 39.0086 81.991 39.0086 80.3122V77.3117Z" fill="url(#paint2_linear)"/>
<path d="M74.493 0.851135C57.6447 0.851135 43.9863 7.04577 43.9863 14.6876V17.6883C43.9863 25.33 57.6447 31.5247 74.493 31.5247C91.3411 31.5247 105 25.33 105 17.6883V14.6876C105 7.04577 91.3411 0.851135 74.493 0.851135Z" fill="url(#paint3_linear)"/>
<path d="M74.493 38.3037C59.7862 38.3037 47.5112 33.5836 44.6279 27.3011C44.208 28.216 43.9863 29.1635 43.9863 30.135V33.1358C43.9863 40.7775 57.6447 46.9722 74.493 46.9722C91.3411 46.9722 105 40.7775 105 33.1358V30.135C105 29.1635 104.778 28.216 104.358 27.3011C101.475 33.5836 89.1998 38.3037 74.493 38.3037Z" fill="url(#paint4_linear)"/>
<path d="M74.493 53.7513C59.7862 53.7513 47.5112 49.031 44.6279 42.7488C44.208 43.6636 43.9863 44.6111 43.9863 45.5827V48.5834C43.9863 56.2254 57.6447 62.4201 74.493 62.4201C91.3411 62.4201 105 56.2254 105 48.5834V45.5827C105 44.6111 104.778 43.6636 104.358 42.7488C101.475 49.0313 89.1998 53.7513 74.493 53.7513Z" fill="url(#paint5_linear)"/>
<path d="M74.493 70.033C59.7862 70.033 47.5112 65.3127 44.6279 59.0305C44.208 59.9455 43.9863 60.8928 43.9863 61.8641V64.8651C43.9863 72.5068 57.6447 78.7015 74.493 78.7015C91.3411 78.7015 105 72.5068 105 64.8651V61.8641C105 60.8928 104.778 59.945 104.358 59.0305C101.475 65.3124 89.1998 70.033 74.493 70.033Z" fill="url(#paint6_linear)"/>
<path d="M74.493 85.4804C59.7862 85.4804 47.5112 80.7604 44.6279 74.4782C44.208 75.3933 43.9863 76.341 43.9863 77.3118V80.3125C43.9863 87.9543 57.6447 94.1489 74.493 94.1489C91.3411 94.1489 105 87.9543 105 80.3125V77.3115C105 76.3402 104.778 75.3925 104.358 74.4779C101.475 80.7601 89.1998 85.4804 74.493 85.4804Z" fill="url(#paint7_linear)"/>
<defs>
<linearGradient id="paint0_linear" x1="-0.00568398" y1="25.9119" x2="40.5513" y2="28.264" gradientUnits="userSpaceOnUse">
<stop stop-color="#FA8544"/>
<stop offset="1" stop-color="#F8533D"/>
</linearGradient>
<linearGradient id="paint1_linear" x1="-0.00568398" y1="51.7784" x2="40.3576" y2="55.4286" gradientUnits="userSpaceOnUse">
<stop stop-color="#FA8544"/>
<stop offset="1" stop-color="#F8533D"/>
</linearGradient>
<linearGradient id="paint2_linear" x1="-0.00584989" y1="67.2261" x2="41.5156" y2="71.0905" gradientUnits="userSpaceOnUse">
<stop stop-color="#FA8544"/>
<stop offset="1" stop-color="#F8533D"/>
</linearGradient>
<linearGradient id="paint3_linear" x1="43.9774" y1="2.47775" x2="107.106" y2="8.2041" gradientUnits="userSpaceOnUse">
<stop stop-color="#FA8544"/>
<stop offset="1" stop-color="#F8533D"/>
</linearGradient>
<linearGradient id="paint4_linear" x1="43.9774" y1="28.3443" x2="106.377" y2="37.1704" gradientUnits="userSpaceOnUse">
<stop stop-color="#FA8544"/>
<stop offset="1" stop-color="#F8533D"/>
</linearGradient>
<linearGradient id="paint5_linear" x1="43.9774" y1="43.7919" x2="106.378" y2="52.618" gradientUnits="userSpaceOnUse">
<stop stop-color="#FA8544"/>
<stop offset="1" stop-color="#F8533D"/>
</linearGradient>
<linearGradient id="paint6_linear" x1="43.9774" y1="60.0736" x2="106.377" y2="68.8998" gradientUnits="userSpaceOnUse">
<stop stop-color="#FA8544"/>
<stop offset="1" stop-color="#F8533D"/>
</linearGradient>
<linearGradient id="paint7_linear" x1="43.9774" y1="75.5211" x2="106.377" y2="84.3472" gradientUnits="userSpaceOnUse">
<stop stop-color="#FA8544"/>
<stop offset="1" stop-color="#F8533D"/>
</linearGradient>
</defs>
</svg>
