<svg width="80" height="80" viewBox="0 0 80 80" fill="none" xmlns="http://www.w3.org/2000/svg">
<path d="M57.3566 29.31C56.0566 28.0083 53.9432 28.0083 52.6432 29.31L38.3332 43.6183L32.3566 37.6433C31.0566 36.3417 28.9432 36.3417 27.6432 37.6433C26.3416 38.945 26.3416 41.055 27.6432 42.3567L35.9766 50.69C36.6266 51.3417 37.4799 51.6667 38.3332 51.6667C39.1866 51.6667 40.0399 51.3417 40.6899 50.69L57.3566 34.0233C58.6582 32.7217 58.6582 30.6117 57.3566 29.31Z" fill="#94BD45"/>
<path d="M76.6667 36.6667C74.8267 36.6667 73.3333 38.16 73.3333 40C73.3333 58.38 58.38 73.3333 40 73.3333C21.62 73.3333 6.66667 58.38 6.66667 40C6.66667 21.62 21.62 6.66667 40 6.66667C48.9483 6.66667 57.3483 10.1633 63.655 16.5133C64.95 17.8217 67.0617 17.8283 68.3683 16.53C69.675 15.2333 69.6817 13.1233 68.385 11.8167C60.8183 4.19667 50.7367 0 40 0C17.9433 0 0 17.9433 0 40C0 62.0567 17.9433 80 40 80C62.0567 80 80 62.0567 80 40C80 38.16 78.5067 36.6667 76.6667 36.6667Z" fill="#94BD45"/>
</svg>
