<svg width="165" height="70" viewBox="0 0 165 70" fill="none" xmlns="http://www.w3.org/2000/svg">
<path d="M120.651 34.9332C120.358 35.0933 120.144 35.2936 120.038 35.5071C119.918 35.7341 119.864 35.9743 119.864 36.2413C119.864 36.6284 119.984 36.9488 120.238 37.2024C120.491 37.456 120.838 37.5895 121.305 37.5895C121.665 37.5895 122.012 37.5094 122.319 37.3626C122.626 37.2024 122.88 37.0022 123.093 36.7619C123.306 36.5083 123.467 36.2146 123.6 35.8809C123.72 35.5472 123.787 35.2001 123.787 34.8531V34.3859C123.013 34.3859 122.386 34.4393 121.866 34.5327C121.345 34.6528 120.945 34.773 120.651 34.9332Z" fill="#000"/>
<path d="M44.2556 29.7406C43.9087 29.7406 43.5752 29.8073 43.2416 29.9408C42.9214 30.0743 42.6279 30.2879 42.361 30.5682C42.1076 30.8619 41.8941 31.2223 41.7473 31.6761C41.5872 32.13 41.5205 32.6639 41.5205 33.3047C41.5205 34.6262 41.734 35.6006 42.1476 36.2147C42.5745 36.8287 43.2416 37.1357 44.1622 37.1357C44.9627 37.1357 45.6165 36.8154 46.1101 36.188C46.6038 35.5606 46.8439 34.6262 46.8439 33.4248C46.8439 32.1967 46.6438 31.2757 46.2436 30.6617C45.83 30.0476 45.1762 29.7406 44.2556 29.7406Z" fill="#000"/>
<path d="M83.7215 29.1666C83.0945 29.1666 82.5608 29.3936 82.1339 29.8608C81.7069 30.328 81.4668 30.9286 81.3867 31.6762H85.7362C85.7762 30.8485 85.6027 30.2212 85.2292 29.8074C84.8689 29.3802 84.362 29.1666 83.7215 29.1666Z" fill="#000"/>
<path d="M156.661 13.2151C152.578 11.7201 147.989 11.6533 143.706 11.2796C138.889 10.8658 133.846 10.492 129.03 10.0782C119.01 9.22387 109.083 8.5431 99.0636 7.67544C79.1307 5.95347 59.2111 4.19146 39.2782 2.50953C34.1016 2.06903 28.9249 1.60183 23.7482 1.20137C19.6255 0.800915 12.1807 0 11.1 0C4.62916 0.0266972 1.4004 4.2849 0.333045 9.62433C-0.0805554 11.7201 -0.0938974 13.8825 0.1596 15.9916C1.09354 23.7071 1.86737 31.4626 3.08149 39.1247C3.96206 44.6644 5.65649 50.1106 10.6597 53.2742C15.4628 56.3043 25.5494 55.6369 32.5139 55.6369C40.5857 55.6369 48.6576 55.6503 56.7295 55.6503C73.2869 55.6503 89.8309 55.6503 106.388 55.6236C108.603 55.6236 114.7 55.6503 114.7 55.6503C114.7 55.6503 115.728 56.4245 116.648 57.3055C119.023 59.5614 121.571 61.6304 124.307 63.4325C129.096 66.5961 136.181 70.4805 142.118 69.9466C137.355 66.516 134.687 61.5503 134.26 55.7304C142.692 55.5435 155.1 56.7849 160.397 50.3242C165.213 44.4641 164.693 35.2269 164.946 28.1121C165.213 21.6781 163.158 15.5912 156.661 13.2151ZM34.6753 40.6331H30.179V32.5439H23.0678V40.6331H18.5715V21.1842H23.0678V28.6461H30.179V21.1842H34.6753V40.6331ZM50.819 36.3349C50.4321 37.296 49.9118 38.1102 49.2313 38.8043C48.5642 39.4851 47.7637 40.0191 46.8431 40.3928C45.9225 40.7666 44.9219 40.9535 43.8545 40.9535C42.8139 40.9535 41.8799 40.82 41.0394 40.553C40.1988 40.286 39.465 39.8589 38.8646 39.2849C38.2642 38.7109 37.7973 37.9634 37.4637 37.069C37.1435 36.1613 36.9701 35.0801 36.9701 33.812C36.9701 32.6373 37.1569 31.5694 37.5304 30.6083C37.904 29.6472 38.4377 28.833 39.1181 28.1388C39.7986 27.458 40.5991 26.9241 41.5197 26.5503C42.4403 26.1766 43.4543 25.9897 44.5483 25.9897C46.7364 25.9897 48.4308 26.5904 49.6183 27.7784C50.8057 28.9664 51.4061 30.7685 51.4061 33.1712C51.3927 34.3192 51.206 35.3738 50.819 36.3349ZM74.8079 40.6331H70.405V31.6495C70.405 31.0355 70.3116 30.5416 70.1382 30.1945C69.9514 29.8341 69.6179 29.6606 69.1242 29.6606C68.804 29.6606 68.4705 29.7674 68.1369 29.9676C67.8034 30.1678 67.5098 30.4481 67.2297 30.8219C66.9628 31.1823 66.7493 31.6228 66.5892 32.1167C66.4291 32.624 66.3491 33.1579 66.3491 33.7319V40.6331H61.9996V31.6228C61.9996 31.0488 61.9062 30.5683 61.7328 30.2079C61.5593 29.8474 61.2124 29.6606 60.6921 29.6606C60.3452 29.6606 59.9983 29.7674 59.6514 29.9809C59.3045 30.1945 58.9977 30.4882 58.7442 30.8486C58.4773 31.209 58.2639 31.6495 58.1037 32.1301C57.9436 32.624 57.8636 33.1579 57.8636 33.7319V40.6331H53.5008V26.3101H57.5968C57.5968 26.577 57.5834 26.9241 57.5567 27.3513C57.53 27.7784 57.49 28.1789 57.4233 28.566H57.45C57.8903 27.7651 58.5173 27.1377 59.3179 26.6838C60.1184 26.23 61.0256 26.003 62.053 26.003C63.1604 26.003 64.0276 26.2433 64.6813 26.7372C65.3217 27.2178 65.762 27.8318 66.0022 28.5793C66.3891 27.8719 66.9628 27.2712 67.7233 26.7639C68.4838 26.2567 69.4177 26.003 70.5118 26.003C71.9127 26.003 72.98 26.4035 73.7138 27.2044C74.4476 28.0053 74.8212 29.2201 74.8212 30.8486V40.6331H74.8079ZM90.0444 33.5583C90.0177 33.8787 89.9777 34.2124 89.9377 34.5862H81.3855C81.3988 35.5339 81.7057 36.2548 82.2794 36.7754C82.8531 37.296 83.747 37.5496 84.9344 37.5496C85.6282 37.5496 86.3353 37.4828 87.0425 37.336C87.7496 37.1892 88.4567 36.9622 89.1505 36.6552L89.5774 39.9657C88.7502 40.286 87.8697 40.5397 86.9357 40.6998C86.0018 40.86 85.0945 40.9401 84.214 40.9401C81.8658 40.9401 80.0646 40.3528 78.8238 39.1781C77.5697 38.0034 76.9426 36.148 76.9426 33.6117C76.9426 32.5172 77.0894 31.5027 77.3962 30.5549C77.6897 29.6205 78.1434 28.8063 78.7171 28.1255C79.3041 27.4447 80.0246 26.9108 80.8785 26.5236C81.7324 26.1365 82.7197 25.9497 83.8404 25.9497C84.9211 25.9497 85.855 26.1232 86.6422 26.4703C87.4294 26.8173 88.0831 27.2845 88.5901 27.8852C89.0971 28.4859 89.4707 29.18 89.7109 29.9943C89.951 30.7952 90.0711 31.6762 90.0711 32.6106C90.0844 32.931 90.0711 33.238 90.0444 33.5583ZM103.72 37.0423C103.346 37.8432 102.813 38.524 102.132 39.1114C101.452 39.6987 100.638 40.1526 99.704 40.4863C98.7567 40.8066 97.716 40.9802 96.5686 40.9802C95.648 40.9802 94.8075 40.9401 94.0603 40.8467C93.3132 40.7666 92.6061 40.6331 91.9256 40.4596L92.3526 36.2014C92.9796 36.4683 93.6601 36.6819 94.3805 36.8288C95.101 36.9889 95.8615 37.0557 96.6754 37.0557C97.4092 37.0557 98.0229 36.8955 98.5432 36.5751C99.0636 36.2548 99.3171 35.7475 99.3171 35.04C99.3171 34.4794 99.1303 34.0522 98.7434 33.7452C98.3564 33.4382 97.8761 33.1579 97.3024 32.9176C96.7287 32.6773 96.1017 32.4371 95.4346 32.1834C94.7675 31.9298 94.1404 31.5961 93.5667 31.169C92.993 30.7418 92.5127 30.2079 92.1257 29.5404C91.7388 28.873 91.552 28.0053 91.552 26.9108C91.552 25.9897 91.7255 25.1621 92.0724 24.4146C92.4193 23.6804 92.9129 23.0397 93.5667 22.4924C94.2204 21.9584 95.021 21.5446 95.9682 21.251C96.9155 20.9573 98.0096 20.8238 99.237 20.8238C99.7307 20.8238 100.318 20.8505 100.958 20.9039C101.612 20.9573 102.212 21.0641 102.773 21.1976L102.372 25.122C101.278 24.7349 100.171 24.5481 99.0369 24.5481C98.1163 24.5481 97.4358 24.7216 97.0089 25.0553C96.5153 25.4291 96.3151 25.9497 96.3685 26.6171C96.4085 26.9908 96.6087 27.3246 96.8888 27.5648C97.2891 27.8852 97.7961 28.1922 98.4098 28.4592C98.9969 28.7128 99.6239 28.9798 100.304 29.2468C100.985 29.5137 101.625 29.8608 102.199 30.3013C102.786 30.7285 103.28 31.2757 103.667 31.9432C104.053 32.6106 104.254 33.4516 104.254 34.4661C104.28 35.3871 104.093 36.2414 103.72 37.0423ZM112.819 40.8333C112.245 40.9134 111.698 40.9535 111.178 40.9535C110.351 40.9535 109.657 40.8734 109.11 40.7265C108.55 40.5664 108.096 40.3127 107.763 39.9657C107.416 39.6053 107.175 39.1381 107.029 38.5507C106.882 37.9634 106.815 37.2292 106.815 36.3482V29.6873H104.654V26.3101H106.815V22.0786L111.218 20.9039V26.3234H114.3V29.7006H111.218V35.3471C111.218 36.0812 111.325 36.5885 111.538 36.8688C111.752 37.1625 112.139 37.296 112.686 37.296C112.953 37.296 113.206 37.2826 113.446 37.2426C113.686 37.2025 113.927 37.1625 114.18 37.0957L114.434 40.5263C113.94 40.6465 113.406 40.7532 112.819 40.8333ZM124.173 40.6331C124.173 40.286 124.173 39.9256 124.186 39.5652C124.2 39.2048 124.227 38.831 124.293 38.4706H124.267C123.92 39.2182 123.359 39.8188 122.572 40.2727C121.785 40.7265 120.891 40.9535 119.89 40.9535C119.197 40.9535 118.596 40.8467 118.076 40.6198C117.556 40.3928 117.129 40.0992 116.782 39.7121C116.435 39.3249 116.168 38.8844 115.995 38.3772C115.808 37.8699 115.714 37.3227 115.714 36.722C115.714 35.8143 115.914 35.04 116.315 34.3993C116.715 33.7586 117.275 33.238 117.982 32.8242C118.69 32.4237 119.543 32.1167 120.531 31.9298C121.518 31.7429 122.599 31.6362 123.773 31.6362V31.0622C123.773 30.4615 123.586 30.021 123.213 29.7407C122.839 29.4603 122.172 29.3135 121.211 29.3135C120.584 29.3135 119.904 29.4069 119.197 29.5938C118.489 29.7807 117.849 30.0076 117.262 30.2746L116.515 26.844C117.262 26.577 118.116 26.3635 119.09 26.1899C120.064 26.0297 121.011 25.9497 121.958 25.9497C123.172 25.9497 124.173 26.0564 124.974 26.2834C125.774 26.5103 126.415 26.8307 126.895 27.2578C127.375 27.685 127.709 28.2189 127.909 28.833C128.096 29.447 128.202 30.1545 128.202 30.942V37.2559C128.202 37.7765 128.216 38.3371 128.229 38.9245C128.242 39.5252 128.282 40.0992 128.309 40.6465H124.173V40.6331ZM139.076 30.3146C137.862 30.0477 136.955 30.2612 136.341 30.9687C135.727 31.6762 135.42 32.9176 135.42 34.733V40.6331H131.071V26.3101H135.14C135.14 26.6171 135.127 27.0042 135.1 27.4714C135.074 27.9386 135.02 28.3924 134.94 28.8463H134.993C135.38 27.9786 135.914 27.2712 136.608 26.7105C137.302 26.1499 138.196 25.9096 139.29 25.963L139.076 30.3146ZM149.856 38.0835C149.55 38.6842 149.109 39.2048 148.549 39.6186C147.989 40.0458 147.295 40.3661 146.508 40.5931C145.707 40.82 144.827 40.9401 143.839 40.9401C142.692 40.9401 141.624 40.8066 140.677 40.5397L140.904 36.9622C141.785 37.3493 142.785 37.5362 143.893 37.5362C144.453 37.5362 144.88 37.4294 145.187 37.2292C145.494 37.029 145.654 36.7487 145.654 36.4016C145.654 36.0545 145.52 35.7876 145.267 35.574C145.013 35.3738 144.68 35.2002 144.293 35.04C143.893 34.8932 143.479 34.7197 143.025 34.5461C142.572 34.3726 142.145 34.1323 141.758 33.8253C141.371 33.5183 141.037 33.1178 140.784 32.624C140.53 32.1301 140.397 31.5027 140.397 30.7018C140.397 30.0477 140.517 29.4336 140.771 28.8463C141.024 28.259 141.398 27.7517 141.918 27.3246C142.438 26.8974 143.092 26.5503 143.893 26.2967C144.693 26.0431 145.64 25.923 146.734 25.923C147.121 25.923 147.535 25.9497 147.975 25.9897C148.415 26.0431 148.842 26.0965 149.243 26.1766L149.096 29.6072C148.736 29.4737 148.335 29.3802 147.895 29.3135C147.468 29.2601 147.041 29.2334 146.614 29.2334C146.054 29.2334 145.64 29.3402 145.374 29.5404C145.107 29.7407 144.973 30.0076 144.973 30.328C144.973 30.635 145.107 30.8886 145.374 31.0755C145.64 31.2624 145.974 31.4493 146.361 31.6228C146.748 31.7963 147.188 31.9832 147.642 32.1701C148.109 32.357 148.536 32.6106 148.922 32.9176C149.309 33.2246 149.643 33.6251 149.91 34.119C150.177 34.6129 150.31 35.2403 150.31 36.0011C150.31 36.8021 150.163 37.4695 149.856 38.0835Z" fill="#000"/>
</svg>
