<svg width="45" height="52" viewBox="0 0 45 52" fill="none" xmlns="http://www.w3.org/2000/svg">
<path d="M2.70016 51.919H36.8999C38.3909 51.919 39.5997 50.7767 39.5997 49.3674V9.39441H43.2C44.1942 9.39441 45 8.6329 45 7.69346V5.14222C44.9967 2.79461 42.9837 0.892374 40.4999 0.889648H2.70016C1.20877 0.889648 0 2.03192 0 3.44127V49.3674C0 50.7767 1.20877 51.919 2.70016 51.919ZM40.4999 2.5906C41.9909 2.5906 43.2 3.73288 43.2 5.14222V7.69346H7.19987V5.14222C7.19657 4.21875 6.87234 3.32253 6.27661 2.5906H40.4999ZM1.79997 3.44127C1.79997 2.97136 2.20289 2.5906 2.70016 2.5906C4.19113 2.5906 5.3999 3.73288 5.3999 5.14222V7.69346C5.3999 8.6329 6.20575 9.39441 7.19987 9.39441H37.7997V49.3674C37.7997 49.8373 37.3968 50.2181 36.8999 50.2181H2.70016C2.20289 50.2181 1.79997 49.8373 1.79997 49.3674V3.44127Z" fill="#000"/>
<path d="M7.20036 22.1517H12.6003C13.5944 22.1517 14.4006 21.3902 14.4006 20.4508V19.6005C14.4006 19.1306 13.9973 18.7498 13.5004 18.7498C13.0036 18.7498 12.6003 19.1306 12.6003 19.6005V20.4508H7.20036V15.3479H9.90051C10.3974 15.3479 10.8003 14.9672 10.8003 14.4976C10.8003 14.0277 10.3974 13.647 9.90051 13.647H7.20036C6.20624 13.647 5.40039 14.4085 5.40039 15.3479V20.4508C5.40039 21.3902 6.20624 22.1517 7.20036 22.1517Z" fill="#000"/>
<path d="M7.20036 34.0589H12.6003C13.5944 34.0589 14.4006 33.2974 14.4006 32.3579V27.2551C14.4006 26.3156 13.5944 25.5537 12.6003 25.5537H7.20036C6.20624 25.5537 5.40039 26.3156 5.40039 27.2551V32.3579C5.40039 33.2974 6.20624 34.0589 7.20036 34.0589ZM7.20036 27.2551H12.6003V32.3579H7.20036V27.2551Z" fill="#000"/>
<path d="M7.20036 45.9655H12.6003C13.5944 45.9655 14.4006 45.2039 14.4006 44.2645V39.1616C14.4006 38.2222 13.5944 37.4607 12.6003 37.4607H7.20036C6.20624 37.4607 5.40039 38.2222 5.40039 39.1616V44.2645C5.40039 45.2039 6.20624 45.9655 7.20036 45.9655ZM7.20036 39.1616H12.6003V44.2645H7.20036V39.1616Z" fill="#000"/>
<path d="M17.9998 17.0488H22.4995C22.9967 17.0488 23.3997 16.668 23.3997 16.1985C23.3997 15.7286 22.9967 15.3479 22.4995 15.3479H17.9998C17.5025 15.3479 17.0996 15.7286 17.0996 16.1985C17.0996 16.668 17.5025 17.0488 17.9998 17.0488Z" fill="#000"/>
<path d="M26.1 17.0488H35.1002C35.5971 17.0488 36 16.668 36 16.1985C36 15.7286 35.5971 15.3479 35.1002 15.3479H26.1C25.6031 15.3479 25.2002 15.7286 25.2002 16.1985C25.2002 16.668 25.6031 17.0488 26.1 17.0488Z" fill="#000"/>
<path d="M17.9998 20.4507H26.9996C27.4964 20.4507 27.8998 20.07 27.8998 19.6004C27.8998 19.1305 27.4964 18.7498 26.9996 18.7498H17.9998C17.5025 18.7498 17.0996 19.1305 17.0996 19.6004C17.0996 20.07 17.5025 20.4507 17.9998 20.4507Z" fill="#000"/>
<path d="M35.1 18.7498H30.6C30.1031 18.7498 29.7002 19.1305 29.7002 19.6004C29.7002 20.07 30.1031 20.4507 30.6 20.4507H35.1C35.5968 20.4507 35.9998 20.07 35.9998 19.6004C35.9998 19.1305 35.5968 18.7498 35.1 18.7498Z" fill="#000"/>
<path d="M17.9998 28.9558H22.4995C22.9967 28.9558 23.3997 28.5751 23.3997 28.1052C23.3997 27.6356 22.9967 27.2549 22.4995 27.2549H17.9998C17.5025 27.2549 17.0996 27.6356 17.0996 28.1052C17.0996 28.5751 17.5025 28.9558 17.9998 28.9558Z" fill="#000"/>
<path d="M35.1002 27.2549H26.1C25.6031 27.2549 25.2002 27.6356 25.2002 28.1052C25.2002 28.5751 25.6031 28.9558 26.1 28.9558H35.1002C35.5971 28.9558 36 28.5751 36 28.1052C36 27.6356 35.5971 27.2549 35.1002 27.2549Z" fill="#000"/>
<path d="M17.9998 32.3579H26.9996C27.4964 32.3579 27.8998 31.9772 27.8998 31.5073C27.8998 31.0377 27.4964 30.657 26.9996 30.657H17.9998C17.5025 30.657 17.0996 31.0377 17.0996 31.5073C17.0996 31.9772 17.5025 32.3579 17.9998 32.3579Z" fill="#000"/>
<path d="M35.1 30.657H30.6C30.1031 30.657 29.7002 31.0377 29.7002 31.5073C29.7002 31.9772 30.1031 32.3579 30.6 32.3579H35.1C35.5968 32.3579 35.9998 31.9772 35.9998 31.5073C35.9998 31.0377 35.5968 30.657 35.1 30.657Z" fill="#000"/>
<path d="M17.9998 40.8626H22.4995C22.9967 40.8626 23.3997 40.4818 23.3997 40.0123C23.3997 39.5424 22.9967 39.1616 22.4995 39.1616H17.9998C17.5025 39.1616 17.0996 39.5424 17.0996 40.0123C17.0996 40.4818 17.5025 40.8626 17.9998 40.8626Z" fill="#000"/>
<path d="M35.1002 39.1616H26.1C25.6031 39.1616 25.2002 39.5424 25.2002 40.0123C25.2002 40.4818 25.6031 40.8626 26.1 40.8626H35.1002C35.5971 40.8626 36 40.4818 36 40.0123C36 39.5424 35.5971 39.1616 35.1002 39.1616Z" fill="#000"/>
<path d="M17.9998 44.2644H26.9996C27.4964 44.2644 27.8998 43.8837 27.8998 43.4141C27.8998 42.9442 27.4964 42.5635 26.9996 42.5635H17.9998C17.5025 42.5635 17.0996 42.9442 17.0996 43.4141C17.0996 43.8837 17.5025 44.2644 17.9998 44.2644Z" ffill="#000"/>
<path d="M35.1 42.5635H30.6C30.1031 42.5635 29.7002 42.9442 29.7002 43.4141C29.7002 43.8837 30.1031 44.2644 30.6 44.2644H35.1C35.5968 44.2644 35.9998 43.8837 35.9998 43.4141C35.9998 42.9442 35.5968 42.5635 35.1 42.5635Z" fill="#000"/>
<path d="M9.63666 16.4479C9.28358 16.1256 8.72204 16.1302 8.37473 16.458C8.02783 16.7862 8.02289 17.3165 8.36402 17.6505L10.164 19.3515C10.3329 19.5107 10.5616 19.6006 10.8001 19.6006H10.8751C11.1388 19.5796 11.3794 19.4504 11.5331 19.2468L16.0328 13.2932C16.2199 13.046 16.2528 12.7233 16.1193 12.4469C15.9863 12.1701 15.7069 11.9816 15.3868 11.9524C15.0667 11.9232 14.7544 12.0579 14.5678 12.3052L10.686 17.4411L9.63666 16.4479Z" fill="#000"/>
</svg>
