<svg width="56" height="53" viewBox="0 0 56 53" fill="none" xmlns="http://www.w3.org/2000/svg">
<path d="M16.4552 32.2481C17.2728 31.8583 18.2541 32.1494 18.6894 32.911L21.778 38.3156C22.016 38.7321 22.523 38.9423 23.0085 38.8265C23.494 38.7106 23.8341 38.2977 23.8341 37.8245V29.9329C23.834 29.3622 23.3444 28.8994 22.7403 28.8994C22.1362 28.8994 21.6465 29.3623 21.6465 29.933V33.7356L20.614 31.9289C19.6119 30.1756 17.3521 29.5049 15.4698 30.4027C13.8588 31.1707 13.0292 32.8648 13.4524 34.5223L15.4547 42.3653C15.9227 44.1987 16.7571 45.9004 17.9347 47.4232L21.8573 52.4957C22.0714 52.7727 22.4041 52.9196 22.7413 52.9196C22.9652 52.9196 23.1911 52.8548 23.3857 52.7204C23.8734 52.3836 23.9799 51.7369 23.6235 51.276L19.7009 46.2035C18.6944 44.902 17.9813 43.4476 17.5813 41.8806L15.5789 34.0375C15.3951 33.3175 15.7555 32.5818 16.4552 32.2481Z" fill="white"/>
<path d="M41.1498 27.843C40.5044 27.843 39.8968 27.9992 39.367 28.2734C38.8303 26.9522 37.4746 26.0116 35.8899 26.0116C35.2064 26.0116 34.5659 26.1873 34.0147 26.4922C33.4257 25.281 32.1305 24.4374 30.63 24.4374C30.0824 24.4374 29.5625 24.5506 29.0938 24.752V19.8104C29.0938 17.8701 27.4235 16.2915 25.3702 16.2915C23.3169 16.2915 21.6465 17.87 21.6465 19.8104V21.602C21.6465 22.1727 22.1362 22.6356 22.7402 22.6356C23.3443 22.6356 23.834 22.1727 23.834 21.602V19.8105C23.834 19.01 24.5232 18.3588 25.3702 18.3588C26.2172 18.3588 26.9063 19.01 26.9063 19.8105V34.3951C26.9063 34.9658 27.396 35.4287 28.0001 35.4287C28.6042 35.4287 29.0938 34.9658 29.0938 34.3951V27.9562C29.0938 27.1557 29.7829 26.5045 30.63 26.5045C31.4771 26.5045 32.1662 27.1557 32.1662 27.9562V34.3951C32.1662 34.9658 32.6559 35.4287 33.2599 35.4287C33.864 35.4287 34.3537 34.9658 34.3537 34.3951V29.5304C34.3537 28.7299 35.0428 28.0786 35.8899 28.0786C36.737 28.0786 37.4261 28.7299 37.4261 29.5304V34.3951C37.4261 34.9658 37.9157 35.4287 38.5198 35.4287C39.1239 35.4287 39.6136 34.9658 39.6136 34.3951V31.3616C39.6136 30.5612 40.3027 29.9099 41.1497 29.9099C41.9967 29.9099 42.6859 30.5612 42.6859 31.3616V40.0829C42.6859 42.4068 42.3127 44.7097 41.5768 46.9271L40.034 51.5764C39.8533 52.1211 40.174 52.7012 40.7504 52.8719C40.8593 52.9043 40.9695 52.9196 41.078 52.9196C41.5433 52.9195 41.9747 52.6367 42.1213 52.1949L43.6642 47.5456C44.4665 45.1277 44.8734 42.6168 44.8734 40.0829V31.3616C44.8735 29.4216 43.2031 27.843 41.1498 27.843Z" fill="white"/>
<path d="M55.9085 5.481C55.6902 4.84649 55.1205 4.39284 54.4217 4.29703L51.0716 3.83802L49.5727 0.969607C49.2602 0.371471 48.6275 0 47.9217 0C47.9216 0 47.9214 0 47.9213 0C47.2152 0.000103359 46.5826 0.371988 46.2703 0.970434L44.7729 3.83946L41.4231 4.30034C40.7244 4.39646 40.1549 4.85041 39.937 5.48514C39.719 6.11976 39.8979 6.80317 40.4035 7.26869L42.8282 9.50103L42.2569 12.6541C42.1378 13.3118 42.4186 13.9639 42.9899 14.3558C43.3126 14.5773 43.69 14.6896 44.07 14.6896C44.3628 14.6896 44.6571 14.6229 44.929 14.4878L47.9249 12.9984L50.9217 14.4863C51.5467 14.7968 52.2897 14.7458 52.8608 14.3533C53.4318 13.961 53.7124 13.3089 53.5927 12.6512L53.0196 9.49845L55.443 7.26497C55.9485 6.79903 56.1269 6.11542 55.9085 5.481ZM51.3621 8.13856C50.928 8.53846 50.7303 9.11437 50.833 9.67891L51.3182 12.3479L48.7813 11.0884C48.2446 10.8217 47.6039 10.8221 47.0674 11.0887L44.5312 12.3496L45.015 9.68015C45.1171 9.11561 44.9191 8.54001 44.4848 8.14021L42.4321 6.25041L45.2682 5.86033C45.8679 5.77775 46.3861 5.42178 46.6542 4.90798L47.9219 2.47926L49.1908 4.90726C49.4592 5.42095 49.9776 5.77661 50.5776 5.85899L53.4137 6.24772L51.3621 8.13856Z" fill="white"/>
<path d="M35.9857 5.481C35.7674 4.84648 35.1977 4.39274 34.499 4.29703L31.1489 3.83801L29.6499 0.969606C29.3373 0.37147 28.7048 0 27.9989 0C27.9988 0 27.9986 0 27.9983 0C27.2923 0.000103358 26.6597 0.371987 26.3474 0.970433L24.8501 3.83946L21.5003 4.30033C20.8016 4.39646 20.232 4.85041 20.0142 5.48513C19.7962 6.11975 19.975 6.80316 20.4807 7.26869L22.9053 9.50092L22.3339 12.654C22.2148 13.3116 22.4957 13.9637 23.0669 14.3557C23.3896 14.5772 23.7671 14.6895 24.147 14.6895C24.4398 14.6895 24.7341 14.6227 25.0061 14.4877L28.0021 12.9984L30.9988 14.4862C31.6238 14.7967 32.3669 14.7456 32.9379 14.3532C33.509 13.9608 33.7895 13.3087 33.6699 12.6511L33.0968 9.49833L35.5202 7.26486C36.0256 6.79902 36.204 6.11551 35.9857 5.481ZM31.4394 8.13855C31.0054 8.53834 30.8076 9.11415 30.9102 9.6789L31.3954 12.3479L28.8586 11.0884C28.3218 10.8218 27.6809 10.8219 27.1447 11.0887L24.6084 12.3496L25.0921 9.68014C25.1943 9.11549 24.9962 8.53989 24.562 8.1402L22.5093 6.2504L25.3453 5.86032C25.945 5.77774 26.4633 5.42177 26.7314 4.90798L27.9991 2.47916L29.2681 4.90725C29.5364 5.42084 30.0547 5.7766 30.6548 5.85898L33.4909 6.24771L31.4394 8.13855Z" fill="white"/>
<path d="M16.0629 5.481C15.8446 4.84649 15.2748 4.39284 14.576 4.29703L11.226 3.83802L9.72709 0.969607C9.4145 0.371471 8.78198 0 8.07607 0C8.07596 0 8.07574 0 8.07553 0C7.36951 0.000103359 6.73688 0.371988 6.42462 0.970434L4.92727 3.83946L1.57744 4.30034C0.878748 4.39646 0.309341 4.85041 0.0913564 5.48503C-0.126628 6.11966 0.0519813 6.80306 0.557732 7.26869L2.98247 9.50103L2.41109 12.6541C2.29199 13.3118 2.57286 13.9639 3.14413 14.3559C3.46689 14.5773 3.84424 14.6897 4.22432 14.6896C4.51711 14.6896 4.81144 14.6229 5.08335 14.4878L8.07935 12.9985L11.0761 14.4863C11.7012 14.7966 12.4442 14.7457 13.0152 14.3534C13.5863 13.961 13.8667 13.3087 13.7472 12.6511L13.174 9.49835L15.5975 7.26487C16.1028 6.79903 16.2812 6.11552 16.0629 5.481ZM11.5166 8.13846C11.0825 8.53825 10.8846 9.11416 10.9873 9.67891L11.4725 12.3479L8.93576 11.0884C8.39906 10.8219 7.75823 10.822 7.22185 11.0887L4.68544 12.3497L5.1691 9.68046C5.27147 9.11592 5.0734 8.54021 4.63907 8.14032L2.58653 6.25041L5.42252 5.86033C6.02222 5.77775 6.54044 5.42178 6.80852 4.90798L8.07618 2.47916L9.34515 4.90726C9.61345 5.42085 10.1318 5.77661 10.7319 5.85899L13.5681 6.24772L11.5166 8.13846Z" fill="white"/>
<path d="M23.5135 25.1295C23.3101 24.9372 23.028 24.8267 22.7402 24.8267C22.4526 24.8267 22.1704 24.9372 21.967 25.1295C21.7635 25.3219 21.6465 25.5883 21.6465 25.8603C21.6465 26.1321 21.7635 26.3988 21.967 26.5909C22.1704 26.7832 22.4526 26.8939 22.7402 26.8939C23.0279 26.8939 23.3101 26.7833 23.5135 26.5909C23.717 26.3988 23.834 26.1321 23.834 25.8603C23.834 25.5882 23.717 25.3217 23.5135 25.1295Z" fill="white"/>
</svg>
