<?xml version="1.0" encoding="utf-8"?>
<!-- Generator: Adobe Illustrator 24.0.1, SVG Export Plug-In . SVG Version: 6.00 Build 0)  -->
<svg version="1.1" id="Слой_1" xmlns="http://www.w3.org/2000/svg" xmlns:xlink="http://www.w3.org/1999/xlink" x="0px" y="0px"
	 viewBox="0 0 53 51" style="enable-background:new 0 0 53 51;" xml:space="preserve">
<path d="M52.4,28.8c-0.3-1-0.6-2-0.6-2.8c0-0.9,0.3-1.8,0.6-2.8c0.5-1.6,1-3.3,0.4-4.9c-0.6-1.7-2.1-2.8-3.6-3.9
	c-0.9-0.6-1.7-1.2-2.2-1.9c-0.5-0.7-0.9-1.6-1.3-2.5c-0.7-1.6-1.4-3.2-2.9-4.2c-1.5-1-3.4-1.1-5.3-1.2c-1.1-0.1-2.2-0.1-3.1-0.4
	c-0.8-0.2-1.7-0.8-2.7-1.3c-1.5-0.9-3.2-1.9-5.1-1.9s-3.7,1-5.1,1.9c-0.9,0.5-1.8,1.1-2.7,1.3c-0.9,0.3-2,0.3-3.1,0.4
	c-1.8,0.1-3.7,0.2-5.3,1.2c-1.5,1-2.2,2.6-2.9,4.2c-0.4,1-0.8,1.9-1.3,2.5c-0.5,0.7-1.4,1.3-2.2,1.9c-1.5,1.1-3,2.2-3.6,3.9
	c-0.6,1.6-0.1,3.3,0.4,4.9c0.3,1,0.6,2,0.6,2.8c0,0.9-0.3,1.8-0.6,2.8c-0.5,1.6-1,3.3-0.4,4.9c0.6,1.7,2.1,2.8,3.6,3.9
	c0.9,0.6,1.7,1.2,2.2,1.9C6.6,40.1,7,41,7.4,42c0.7,1.6,1.4,3.2,2.9,4.2c1.5,1,3.4,1.1,5.3,1.2c1.1,0.1,2.2,0.1,3.1,0.4
	c0.8,0.2,1.7,0.8,2.7,1.3c1.5,0.9,3.2,1.9,5.2,1.9c2,0,3.7-1,5.2-1.9c0.9-0.5,1.8-1.1,2.7-1.3c0.9-0.3,2-0.3,3.1-0.4
	c1.8-0.1,3.7-0.2,5.3-1.2c1.6-1,2.2-2.7,2.9-4.2c0.4-1,0.8-1.9,1.3-2.5c0.5-0.7,1.4-1.3,2.2-1.9c1.5-1.1,3-2.2,3.6-3.9
	C53.3,32.1,52.8,30.4,52.4,28.8z M50.6,33c-0.4,1.1-1.6,1.9-2.8,2.8c-1,0.7-1.9,1.4-2.7,2.3c-0.7,0.9-1.2,2-1.6,3
	c-0.6,1.3-1.1,2.6-2.1,3.2c-1,0.6-2.5,0.7-4.1,0.8c-1.2,0.1-2.5,0.1-3.7,0.5c-1.1,0.3-2.2,0.9-3.2,1.5c-1.4,0.8-2.6,1.6-3.9,1.6
	c-1.3,0-2.6-0.8-3.9-1.6c-1-0.6-2.1-1.2-3.2-1.5c-1.2-0.3-2.5-0.4-3.7-0.5c-1.6-0.1-3.1-0.2-4.1-0.8c-1-0.7-1.5-1.9-2.1-3.2
	c-0.4-1-0.9-2.1-1.6-3c-0.7-0.9-1.7-1.6-2.7-2.3C4,34.9,2.8,34,2.4,33c-0.4-1,0-2.3,0.4-3.6c0.3-1.1,0.7-2.3,0.7-3.4
	s-0.3-2.3-0.7-3.4c-0.4-1.4-0.8-2.6-0.4-3.6C2.8,17.8,4,17,5.2,16c1-0.7,1.9-1.4,2.7-2.3c0.7-0.9,1.2-2,1.6-3
	c0.6-1.3,1.1-2.6,2.1-3.2c1-0.6,2.5-0.7,4.1-0.8c1.2-0.1,2.5-0.1,3.7-0.5c1.1-0.3,2.2-1,3.2-1.5c1.4-0.8,2.6-1.5,3.9-1.5
	c1.3,0,2.6,0.8,3.9,1.6c1,0.6,2.1,1.2,3.2,1.5c1.2,0.3,2.5,0.4,3.7,0.5c1.6,0.1,3.1,0.2,4.1,0.8c1,0.7,1.5,1.9,2.1,3.2
	c0.4,1,0.9,2.1,1.6,3c0.7,0.9,1.7,1.6,2.7,2.3c1.2,0.9,2.4,1.8,2.8,2.8c0.4,1,0,2.3-0.4,3.6c-0.3,1.1-0.7,2.3-0.7,3.4
	c0,1.2,0.3,2.3,0.7,3.4C50.5,30.7,50.9,32,50.6,33z"/>
<path d="M26.5,9.6C17,9.6,9.2,16.9,9.2,25.9c0,9,7.8,16.3,17.3,16.3s17.3-7.3,17.3-16.3C43.8,16.9,36,9.6,26.5,9.6z M26.5,40.1
	c-8.3,0-15-6.3-15-14.2s6.7-14.2,15-14.2c4.3,0,8.1,1.7,10.8,4.4l-11,14.6l-5.9-5.6c-0.5-0.4-1.2-0.4-1.6,0c-0.5,0.4-0.5,1.1,0,1.5
	l6.9,6.5c0.2,0.2,0.5,0.3,0.8,0.3c0,0,0.1,0,0.1,0c0.3,0,0.6-0.2,0.8-0.5l11.4-15.2c1.7,2.3,2.6,5,2.6,8
	C41.5,33.7,34.8,40.1,26.5,40.1z"/>
</svg>
